/* XPM */
static char * wifi_radar_xpm[] = {
"99 79 2 1",
" 	c None",
".	c #000000",
"                                                                                                   ",
"                                                                                                   ",
"                                                                                                   ",
"                                                                                                   ",
"                                                                                                   ",
"                                                                                                   ",
"                                                                                                   ",
"                                                                                                   ",
"                                                                                                   ",
"                                                                                                   ",
"                                            .............                                          ",
"                                        .....................                                      ",
"                                      ..........................                                   ",
"                                    ..............................                                 ",
"                                  ..................................                               ",
"                                ......................................                             ",
"                              .........................................                            ",
"                             ............................................                          ",
"                            ....................     .....................                         ",
"                           ................               .................                        ",
"                         ................                    ...............                       ",
"                        ...............                        ..............                      ",
"                       ..............                            ..............                    ",
"                      .............                               .............                    ",
"                     .............                                  ............                   ",
"                     ............              .......               ............                  ",
"                    ...........            ...............            ............                 ",
"                   ...........          .....................          ............                ",
"                  ...........         .........................         ............               ",
"                 ...........         ............................        ...........               ",
"                 ...........       ...............................        ...........              ",
"                ...........       ...............  .................       ..........              ",
"                ..........       ...........             ............       ..........             ",
"               ..........      ...........                  ..........       ..........            ",
"               .........      ..........                     ..........      ..........            ",
"              ..........     ..........                        .........      ..........           ",
"              .........      ........                           .........      .........           ",
"             ..........     ........                             .........     ..........          ",
"            ..........     ........                                ........     .........          ",
"            ..........    ........                                  .......     ..........         ",
"           ..........    ........                                   ........     .........         ",
"           ..........    ........             ..........             ........    .........         ",
"           .........    ........           ...............            .......     ........         ",
"           ........     .......          ...................           .......    .........        ",
"            .......    .......          .........    .........         .......     .......         ",
"             .....     .......         ......           .......         .......     .....          ",
"               ..     .......         .....               ......         ......      ..            ",
"                      .......        .....                  .....        .......                   ",
"                     .......        .....                    .....        ......                   ",
"                     .......       .....                      .....       ......                   ",
"                     ......       .....                        ....       ......                   ",
"                      ....        ....                          ....       .....                   ",
"                        .        ....                           ....        .                      ",
"                                 ....                            ....                              ",
"                                ....                             ....                              ",
"                                ....                              ....                             ",
"                                ...                               ....                             ",
"                                ..                                 ...                             ",
"                                                                                                   ",
"                                                                                                   ",
"                                                                                                   ",
"                                                                                                   ",
"                                                                                                   ",
"                                                                                                   ",
"                                                                                                   ",
"                                                                                                   ",
"                                                                                                   ",
"                                                                                                   ",
"                                                                                                   ",
"                                                                                                   ",
"                                                                                                   ",
"                                                                                                   ",
"                                                                                                   ",
"                                                                                                   ",
"                                                                                                   ",
"                                                                                                   ",
"                                                                                                   ",
"                                                                                                   ",
"                                                                                                   "};
